<svg width="19" height="19" fill="none" xmlns="http://www.w3.org/2000/svg"><path d="M9.682 12.938a3.216 3.216 0 003.21-3.21 3.216 3.216 0 00-3.21-3.21 3.216 3.216 0 00-3.21 3.21 3.216 3.216 0 003.21 3.21zM3.83 16.544l3.068-3.068-.966-.966-3.068 3.069.966.966zm11.704 0l.966-.966-3.068-3.068-.966.966 3.068 3.069zM5.932 6.944l.966-.966L3.83 2.91l-.966.966 3.068 3.068zm7.5 0L16.5 3.875l-.966-.966-3.068 3.068.966.966zM9 18.676h1.364v-4.318H9v4.318zM.733 10.41h4.318V9.045H.733v1.364zm13.58 0h4.318V9.045h-4.319v1.364zM9 5.097h1.364V.778H9v4.319z" fill="#f1f1f1"/></svg>